<svg width="300" height="300" viewBox="0 0 300 300" fill="none" xmlns="http://www.w3.org/2000/svg">
<circle cx="150" cy="150" r="150" fill="#39BFDC"/>
<path d="M78.4394 59.8189C106.682 77.602 114.348 91.127 115.819 120.561" stroke="white" stroke-width="9" stroke-linecap="round"/>
<path d="M208 59.5C176.5 56.5 165.909 96.9898 167.38 126.423" stroke="white" stroke-width="9" stroke-linecap="round"/>
<path d="M136 36C107.5 54 153.5 91 139.379 121.423" stroke="white" stroke-width="9" stroke-linecap="round"/>
<path d="M75 121H203V210C203 234.853 182.853 255 158 255H120C95.1472 255 75 234.853 75 210V121Z" fill="#FFF8BA"/>
<path d="M202.267 219.061C212.478 219.147 222.306 215.015 229.589 207.575C236.872 200.135 241.014 189.995 241.104 179.387C241.193 168.779 237.223 158.571 230.066 151.009C222.909 143.447 213.153 139.15 202.942 139.064L202.851 149.909C210.293 149.972 217.404 153.103 222.62 158.615C227.837 164.127 230.73 171.567 230.665 179.299C230.6 187.031 227.581 194.421 222.273 199.844C216.964 205.267 209.801 208.278 202.359 208.216L202.267 219.061Z" fill="#FFF8BA"/>
<ellipse cx="111" cy="172" rx="14" ry="22" fill="#553D3D"/>
<ellipse cx="164" cy="172" rx="14" ry="22" fill="#553D3D"/>
<path d="M173.5 161C173.5 164.59 171.261 167.5 168.5 167.5C165.739 167.5 163.5 164.59 163.5 161C163.5 157.41 165.739 154.5 168.5 154.5C171.261 154.5 173.5 157.41 173.5 161Z" fill="white"/>
<path d="M119.5 161C119.5 164.59 117.261 167.5 114.5 167.5C111.739 167.5 109.5 164.59 109.5 161C109.5 157.41 111.739 154.5 114.5 154.5C117.261 154.5 119.5 157.41 119.5 161Z" fill="white"/>
<path d="M117 205.5C124.5 217.5 146.5 219.5 154 205.5" stroke="#553D3D" stroke-width="3"/>
<ellipse cx="180" cy="224.075" rx="14" ry="14.5" transform="rotate(141.131 180 224.075)" fill="white"/>
</svg>
